# xmcd
#
# Track frame offsets:
#	150
#	13162
#	22985
#	36942
#	49937
#	61815
#	74942
#	86612
#	98490
#	112115
#	124487
#	134890
#	145132
#	154397
#	170645
#	181405
#	194110
#	208150
#	217205
#	231542
#
# Disc length: 3277
#
# Revision: 1
# Processed by: cddbd v1.5.1PL0 Copyright (c) Steve Scherf et al.
# Submitted via: audiograbber 1.80.04
# Normalized: r0:DSETVAR1
#
DISCID=4c0ccb14
DTITLE=Various Artist - The Great Country Collection  CD1
DYEAR=1997
DGENRE=Country
TTITLE0=Charlie Rich - The Most Beautiful Girl
TTITLE1=Ned Miller - From A Jack To A King
TTITLE2=Don Williams - Crying In The Rain
TTITLE3=Kenny Rogers and The First Edition - Ruby, Don't Take Your Love To Town
TTITLE4=Donna Fargo - U.S. Of America
TTITLE5=B.J.Thomas - Raindrops Keep Falling On My Head
TTITLE6=Don Gibson - I Can't Stop Loving You
TTITLE7=Skeeter Davis - End Of The World
TTITLE8=Jimmy Dean - Big Bad John
TTITLE9=Freddy Fender - Wasted Days And Wasted Nights
TTITLE10=Jordanaires - It's Only Make Believe
TTITLE11=Porter Wagoner - Green Green Grass Of Home
TTITLE12=Poacher - Louisiana Saturday Night
TTITLE13=La Toya Jackson - These Boots Are Made For Walking
TTITLE14=Patsy Cline - I Can See An Angel
TTITLE15=Dr.Hook Featuring Ray Saywer - Only Sixteen
TTITLE16=Christie - Yellow River
TTITLE17=Frank Ifield - I Remember You
TTITLE18=Brdr.Olsen - Hello Mary Lou
TTITLE19=Bellamy Brothers - If I Said You Had A Beautiful Body
EXTD=
EXTT0=
EXTT1=
EXTT2=
EXTT3=
EXTT4=
EXTT5=
EXTT6=
EXTT7=
EXTT8=
EXTT9=
EXTT10=
EXTT11=
EXTT12=
EXTT13=
EXTT14=
EXTT15=
EXTT16=
EXTT17=
EXTT18=
EXTT19=
PLAYORDER=
